<?xml version="1.0" encoding="UTF-8" ?>
<!DOCTYPE svg PUBLIC "-//W3C//DTD SVG 1.1//EN" "http://www.w3.org/Graphics/SVG/1.1/DTD/svg11.dtd">
<svg width="19pt" height="16pt" viewBox="0 0 19 16" version="1.1" xmlns="http://www.w3.org/2000/svg">
<g id="#d1af76ec">
<path fill="#d1af76" opacity="0.93" d=" M 13.95 0.00 L 19.00 0.00 L 19.00 16.00 L 13.95 16.00 C 13.92 10.67 13.93 5.33 13.95 0.00 M 15.28 1.33 C 15.26 5.78 15.26 10.22 15.28 14.67 C 15.88 14.67 17.06 14.66 17.65 14.66 C 17.67 10.22 17.67 5.78 17.65 1.34 C 17.06 1.34 15.87 1.33 15.28 1.33 Z" />
<path fill="#d1af76" opacity="0.93" d=" M 0.00 3.90 C 1.68 3.89 3.36 3.90 5.04 3.91 C 5.08 7.94 5.07 11.97 5.05 16.00 L 0.00 16.00 L 0.00 3.90 M 1.35 5.27 C 1.33 8.40 1.33 11.53 1.35 14.65 C 1.94 14.66 3.12 14.67 3.71 14.67 C 3.74 11.54 3.74 8.40 3.72 5.26 C 3.12 5.27 1.94 5.27 1.35 5.27 Z" />
<path fill="#d1af76" opacity="0.93" d=" M 6.96 6.42 C 8.65 6.42 10.35 6.42 12.04 6.42 C 12.07 9.62 12.08 12.81 12.05 16.00 L 6.96 16.00 C 6.92 12.81 6.93 9.62 6.96 6.42 M 8.34 7.83 C 8.33 10.11 8.33 12.38 8.35 14.66 C 8.93 14.66 10.08 14.66 10.65 14.66 C 10.67 12.39 10.67 10.11 10.66 7.83 C 10.08 7.83 8.92 7.83 8.34 7.83 Z" />
</g>
</svg>
